Coordinates
version=1
nRows=13
nColumns=40
inDegrees=yes

Units are S.I. units (second, meters, Newtons, ...)
Angles are in degrees.

endheader
time	pelvis_tilt	pelvis_list	pelvis_rotation	pelvis_tx	pelvis_ty	pelvis_tz	hip_flexion_r	hip_adduction_r	hip_rotation_r	knee_angle_r	knee_angle_r_beta	ankle_angle_r	subtalar_angle_r	mtp_angle_r	hip_flexion_l	hip_adduction_l	hip_rotation_l	knee_angle_l	knee_angle_l_beta	ankle_angle_l	subtalar_angle_l	mtp_angle_l	lumbar_extension	lumbar_bending	lumbar_rotation	arm_flex_r	arm_add_r	arm_rot_r	elbow_flex_r	pro_sup_r	wrist_flex_r	wrist_dev_r	arm_flex_l	arm_add_l	arm_rot_l	elbow_flex_l	pro_sup_l	wrist_flex_l	wrist_dev_l
     19.92250000	     -6.72043973	     -4.07727612	     -3.85918599	      0.97036295	      0.92952695	      0.51520453	     17.76429688	      1.87542954	     -3.78173251	     16.55459646	     16.55459646	      8.15248810	      5.49267034	     -2.12252359	      1.48164098	    -12.00116625	    -14.14328982	     14.89799285	     14.89799285	     16.24079999	      2.30595851	     -0.22421463	     -7.06986769	      5.34911183	      0.00697814	    -13.98303404	    -17.78863191	      1.78052188	     36.94464996	     45.29626148	      0.00000000	      0.00000000	     34.20550351	    -17.03854922	    -10.78498291	     76.25437859	     47.87881537	      0.00000000	      0.00000000
     19.94428571	     -6.71659782	     -4.09534703	     -3.01913956	      0.97065963	      0.92959198	      0.51990869	     17.42312777	      2.06722159	     -4.38261241	     16.64384436	     16.64384436	      8.57859612	      5.12702398	     -2.21699922	      2.46436703	    -12.75294613	    -13.26973931	     16.89912570	     16.89912570	     16.16345031	      2.25449561	     -0.55123749	     -7.04513161	      5.30406955	     -0.23206751	    -12.91204721	    -18.16691369	      1.47230401	     37.34890592	     45.31201399	      0.00000000	      0.00000000	     32.48689546	    -16.34633620	    -10.21241304	     74.73542062	     47.80222641	      0.00000000	      0.00000000
     19.96607143	     -6.58005961	     -4.10996386	     -2.22079444	      0.97093085	      0.92972856	      0.52452886	     16.97768069	      2.26617716	     -4.88267115	     16.79970725	     16.79970725	      9.05807434	      4.74283123	     -2.35260448	      3.55442734	    -13.54768420	    -12.37556093	     19.33807005	     19.33807005	     15.90695048	      2.17925978	     -1.25142029	     -7.16211625	      5.26457457	     -0.41381631	    -11.65321545	    -18.55888444	      1.17885502	     37.72089862	     45.32776579	      0.00000000	      0.00000000	     30.58977661	    -15.63693775	     -9.61257002	     72.93977402	     47.71761840	      0.00000000	      0.00000000
     19.98785714	     -6.47922341	     -4.06958352	     -1.41767573	      0.97095268	      0.92969995	      0.52900651	     16.68367712	      2.42511962	     -5.25685265	     17.12364763	     17.12364763	      9.53907258	      4.08520265	     -2.45920826	      5.00934625	    -14.35759539	    -11.48349264	     22.26681931	     22.26681931	     15.21322220	      2.20550931	     -3.02409253	     -7.14980563	      5.15881750	     -0.49669625	    -10.16147587	    -18.80136569	      0.64695100	     37.76648759	     45.38015525	      0.00000000	      0.00000000	     28.95212299	    -14.93828908	     -8.57516019	     69.53443044	     47.57840313	      0.00000000	      0.00000000
     20.00964286	     -6.21755344	     -4.07828217	     -0.61393785	      0.97094624	      0.92981394	      0.53328048	     16.12204668	      2.61772520	     -5.77867488	     17.25627542	     17.25627542	      9.96302844	      3.70297735	     -2.56822904	      6.63223607	    -15.14888750	    -10.07870724	     25.73273588	     25.73273588	     14.50702317	      1.57077338	     -4.14421669	     -7.39135040	      5.10360475	     -0.53420456	     -8.61825507	    -19.12712313	      0.33585800	     38.20766772	     45.39473172	      0.00000000	      0.00000000	     26.69513830	    -14.11505379	     -7.94602029	     67.57177968	     47.48624538	      0.00000000	      0.00000000
     20.03142857	     -6.11696408	     -4.06873064	      0.18141772	      0.97058710	      0.92943547	      0.53741852	     15.94179271	      2.79555166	     -6.17392614	     17.71334002	     17.71334002	     10.41255619	      3.05001668	     -2.72308985	      8.82449680	    -15.88007958	     -8.37311090	     29.74143671	     29.74143671	     13.44290573	      0.74934630	     -5.73707828	     -7.39827133	      5.03531051	     -0.88318273	     -6.68730036	    -19.33922711	     -0.04755036	     38.64213479	     45.41702749	      0.00000000	      0.00000000	     24.30893386	    -13.54548500	     -7.21622840	     64.47799680	     47.36892259	      0.00000000	      0.00000000
     20.05321429	     -5.69571211	     -4.01690271	      0.89634410	      0.97034920	      0.92924804	      0.54146539	     15.45428199	      2.95365887	     -6.45396999	     18.25685874	     18.25685874	     11.03224396	      2.39549085	     -2.91913963	     10.78100433	    -16.46934578	     -6.67349218	     33.91011101	     33.91011101	     12.18869307	     -0.29275148	     -7.01377612	     -7.76193620	      4.86635126	     -0.90519530	     -4.65602548	    -19.55929681	     -0.37025913	     39.08344555	     45.43493857	      0.00000000	      0.00000000	     21.95683545	    -12.76160951	     -6.52925697	     61.59440331	     47.25785575	      0.00000000	      0.00000000
     20.07500000	     -5.54021592	     -3.82352755	      1.60647439	      0.96971315	      0.92844867	      0.54513483	     15.46842734	      2.94990476	     -6.53103838	     19.14395274	     19.14395274	     11.68190474	      1.32622499	     -3.08925338	     13.26206066	    -16.64977878	     -4.56984599	     38.26376357	     38.26376357	     10.48720559	     -1.98119067	     -8.37631840	     -7.72576478	      4.61314435	     -1.21150086	     -2.21195139	    -19.52411615	     -0.79057465	     39.39936074	     45.46725532	      0.00000000	      0.00000000	     19.66519319	    -12.21996334	     -5.71034028	     57.03971730	     47.11545500	      0.00000000	      0.00000000
     20.09678571	     -5.04844746	     -3.66217216	      2.26597933	      0.96905125	      0.92779310	      0.54871815	     15.22155886	      3.01131612	     -6.51789503	     20.22155996	     20.22155996	     12.46123502	      0.19878579	     -3.06059070	     15.40622587	    -16.64359054	     -2.35057008	     42.54766242	     42.54766242	      8.63208834	     -4.16945707	     -9.42746729	     -8.12644448	      4.34962389	     -0.89594706	      0.32330198	    -19.48440718	     -1.49935505	     38.97762549	     45.54864584	      0.00000000	      0.00000000	     18.42859220	    -11.25942327	     -4.64935791	     50.63649789	     46.94395830	      0.00000000	      0.00000000
     20.11857143	     -4.65192359	     -3.57535477	      2.89504378	      0.96817017	      0.92656825	      0.55206733	     15.18922962	      3.12340106	     -6.56346877	     21.45571649	     21.45571649	     13.23642387	     -0.90851307	     -3.13773473	     17.82359529	    -16.63405969	     -0.32595743	     46.97901603	     46.97901603	      7.31135849	     -5.86786887	     -8.99252056	     -8.43217709	      4.16974777	     -0.90820514	      2.91989440	    -19.40788646	     -2.21869932	     39.68094029	     45.58258427	      0.00000000	      0.00000000	     16.19797073	    -10.58495819	     -3.98257963	     46.31948165	     46.82003888	      0.00000000	      0.00000000
     20.14035714	     -4.22219824	     -3.52666373	      3.49831074	      0.96715177	      0.92508609	      0.55521761	     15.19680250	      3.29395609	     -6.51721843	     22.81251430	     22.81251430	     14.14631935	     -2.06005541	     -2.75742232	     20.25025492	    -16.49019635	      1.64300317	     51.30685085	     51.30685085	      6.97682021	     -7.15487487	     -6.18195115	     -8.75429664	      4.02408357	     -0.40751912	      5.50779542	    -19.27843866	     -3.45499679	     39.85787036	     45.66638316	      0.00000000	      0.00000000	     14.95415433	     -9.59099056	     -3.22662890	     39.87316128	     46.68197464	      0.00000000	      0.00000000
     20.16214286	     -3.81529316	     -3.49278226	      4.09359983	      0.96601452	      0.92318850	      0.55808433	     15.30714578	      3.46618368	     -6.48237476	     24.27499704	     24.27499704	     14.91456289	     -3.31497414	     -2.99048821	     22.51936479	    -16.18205573	      3.44239842	     54.96641557	     54.96641557	      5.95051674	     -9.11992317	     -5.23632237	     -9.13979824	      3.89065687	     -0.54728107	      8.31338036	    -19.15624637	     -3.93505184	     41.30592006	     45.65530857	      0.00000000	      0.00000000	     12.06570647	     -9.19486611	     -2.88996597	     37.17039458	     46.59099449	      0.00000000	      0.00000000
     20.18392857	     -3.36044869	     -3.45163650	      4.68204324	      0.96480811	      0.92125612	      0.56067547	     15.37890230	      3.65146735	     -6.36382833	     25.74498033	     25.74498033	     15.64952218	     -4.65250695	     -3.08972266	     24.56052569	    -15.72907274	      5.03911935	     57.99800078	     57.99800078	      5.22476831	    -11.21796249	     -3.79471185	     -9.57072727	      3.77068996	     -0.63005949	     11.30930383	    -18.96170569	     -4.37690344	     42.68744956	     45.64522501	      0.00000000	      0.00000000	      9.43565196	     -8.83388302	     -2.50886585	     34.04197744	     46.49537864	      0.00000000	      0.00000000
